<?xml version="1.0" encoding="UTF-8"?><svg id="Layer_1" xmlns="http://www.w3.org/2000/svg" viewBox="0 0 631.81 143.75"><defs><style>.cls-1{fill:#010101;}.cls-2{fill:#fff;}</style></defs><path class="cls-2" d="M631.81,6.71v137.04H126.13V6.71h505.68ZM299.57,9.83h-13.43v81.82c0,.6.63,2.73.84,3.47,2.87,10.22,12.41,17.68,23.02,18.22h52.19v-40.62c0-3.83,3.86-9.54,6.71-11.98,12.06-10.33,30.84-2.51,32.12,13.21.52,6.34-.1,10.08,2.31,16.38,12.34,32.15,59.78,31.43,70.95-.77,9.94-28.66-15.68-54.99-44.73-48.5-8.32,1.86-16.53,7.31-21.31,14.3-.38.27-1.93-2.03-2.27-2.4-11.44-12.29-30.12-14.16-43.78-4.31v-5.27h-13.67v56.3h-38.26c-2.17,0-6.32-2.08-7.68-3.83-.94-1.2-2.99-6.16-2.99-7.55v-31.27h34.06v-13.66h-34.06V9.83ZM205.06,15.1h-70.05v49.11h40.3l-40.3,35.1v14.02h92.84v-44.92c0-4.3,5.1-9.34,8.99-10.67,3.23-1.11,12.64-1.13,15.85,0,4.52,1.59,8.99,6.94,8.99,11.86v43.72h13.43v-45.41c-.91-11.46-9.68-21.5-20.91-23.9-5.46-1.17-15.19-1.07-20.59.44-10.96,3.05-18.96,13.31-19.44,24.67v29.36s-55.88,0-55.88,0l41.98-35.7v-13.42h-50.38v-19.17h55.17v-15.09ZM498.2,106.62c16.22,11.57,38.64,6.53,48.17-10.95,3.92-7.2,4.33-15.36,3.9-23.44-1.27-23.94-26.83-38.72-48.23-27.31-1.31.7-2.46,1.7-3.83,2.28v-5.03h-13.67v98.23h80.01c11.99-.51,19.67-3.83,24.78-15.01.89-1.95,1.5-4.04,2.39-6,11.86-26.13,24.24-52.02,36.03-78.18h-17.51l-20.63,48.87-22.55-48.87h-14.87l29.95,65.59c.16.94-2.84,7.05-3.43,8.45-1.83,4.36-2.09,8.4-7.09,10.41-3.61,1.46-7.37,1.14-11.14,1.57h-62.26v-20.62Z"/><path d="M299.57,9.83v33.54h34.06v13.66h-34.06v31.27c0,1.39,2.06,6.35,2.99,7.55,1.36,1.75,5.51,3.83,7.68,3.83h38.26v-56.3h13.67v5.27c13.66-9.86,32.34-7.98,43.78,4.31.34.37,1.89,2.67,2.27,2.4,4.78-6.99,12.99-12.44,21.31-14.3,29.05-6.48,54.66,19.84,44.73,48.5-11.16,32.2-58.61,32.92-70.95.77-2.42-6.3-1.8-10.03-2.31-16.38-1.28-15.72-20.06-23.54-32.12-13.21-2.85,2.44-6.71,8.15-6.71,11.98v40.61h-52.19c-10.61-.53-20.15-7.99-23.02-18.21-.21-.74-.84-2.87-.84-3.47V9.83h13.43ZM421.76,93.6c14.21,13.98,39.78,4.89,40.69-15.37.84-18.59-20.34-30.12-36.05-20.91-12.98,7.61-15.45,25.65-4.64,36.29Z"/><path d="M498.2,106.62v20.6h62.26c3.77-.42,7.53-.11,11.14-1.56,5-2.01,5.25-6.05,7.09-10.41.59-1.4,3.59-7.51,3.43-8.45l-29.95-65.59h14.87l22.55,48.87,20.63-48.87h17.51c-11.79,26.16-24.17,52.05-36.03,78.18-.89,1.96-1.5,4.05-2.39,6-5.12,11.18-12.79,14.5-24.78,15.02h-80.01V42.17h13.67v5.03c1.37-.58,2.52-1.58,3.83-2.28,21.41-11.41,46.96,3.36,48.23,27.31.43,8.08.03,16.24-3.9,23.44-9.53,17.48-31.95,22.52-48.17,10.95ZM515.18,54.94c-8.45.82-16.17,8.36-16.95,16.85-.92,9.99,0,19.36,9.25,24.96,10.23,6.19,23.69,1.4,27.9-9.65,1.81-4.74,1.79-15.17,0-19.9-3.12-8.25-11.45-13.12-20.21-12.26Z"/><path d="M205.06,15.1v15.09h-55.17v19.17h50.38v13.42l-41.98,35.7h55.89v-29.36c.47-11.36,8.47-21.61,19.43-24.67,5.39-1.5,15.12-1.6,20.59-.44,11.23,2.4,20,12.45,20.92,23.9v45.41h-13.44v-43.72c0-4.93-4.48-10.27-8.99-11.86-3.21-1.13-12.62-1.11-15.85,0-3.88,1.33-8.99,6.37-8.99,10.67v44.92h-92.84v-14.02l40.3-35.1h-40.3V15.1h70.05Z"/><path class="cls-2" d="M421.76,93.6c-10.81-10.64-8.34-28.68,4.64-36.29,15.71-9.21,36.89,2.32,36.05,20.91-.91,20.26-26.49,29.35-40.69,15.37Z"/><path class="cls-2" d="M515.18,54.94c8.75-.85,17.08,4.01,20.21,12.26,1.79,4.73,1.81,15.16,0,19.9-4.21,11.05-17.67,15.84-27.9,9.65-9.25-5.6-10.17-14.97-9.25-24.96.78-8.49,8.5-16.03,16.95-16.85Z"/><path class="cls-1" d="M108.02,0H25.13l-1.99,16.78c5.21,6.53,12.22,15.05,18.2,21.66-13.91,3.5-24.28,9.77-31.12,18.83C3.39,66.32,0,75,0,86.84c0,13.08,4.9,24.48,12.51,32.52,7.6,8.05,17.29,13.02,31.32,13.02,16.81,0,29.9-5.55,39.29-16.65,9.38-11.1,14.07-23.34,14.07-36.71,0-5.33-1.18-10.9-3.55-16.74-2.37-5.83-8.22-12.92-17.58-21.26-5.68-5.03-11.72-11.45-18.11-19.27h47.85L108.02,0h0ZM72.67,58.79c13.2,12.11,13.14,33.68-.16,48.17-13.29,14.49-34.78,16.42-47.98,4.31-13.21-12.11-13.14-33.68.16-48.17,13.29-14.49,34.77-16.42,47.98-4.31Z"/></svg>