<?xml version="1.0" encoding="UTF-8"?><svg id="Layer_4" xmlns="http://www.w3.org/2000/svg" viewBox="0 0 1032.83 1012.92"><path d="M654.5,357.5h-184.75l-4.43,37.4c11.62,14.56,27.24,33.55,40.57,48.28-31.01,7.79-54.12,21.77-69.35,41.96-15.24,20.18-22.79,39.52-22.79,65.9,0,29.16,10.92,54.55,27.88,72.49,16.95,17.95,38.54,29.02,69.81,29.02,37.47,0,66.65-12.37,87.56-37.1,20.91-24.74,31.36-52.01,31.36-81.83,0-11.87-2.64-24.3-7.91-37.3-5.28-12.99-18.33-28.79-39.18-47.39-12.66-11.21-26.12-25.52-40.37-42.94h106.65l4.96-48.48ZM575.72,488.54c29.43,27,29.28,75.07-.35,107.36-29.63,32.3-77.51,36.59-106.94,9.6-29.44-26.99-29.28-75.07.35-107.36,29.62-32.3,77.5-36.59,106.94-9.6Z"/></svg>