<?xml version="1.0" encoding="utf-8"?>
<svg id="svg2" viewBox="0 0 500 670" xmlns="http://www.w3.org/2000/svg">
  <desc>Source: openclipart.org/detail/209545</desc>
  <g id="Layer_4" transform="matrix(1.696058, 0, 0, 1.598716, -239.672291, 102.947206)" style="transform-origin: 511.151px 281.254px;">
    <path d="M 631.521 133.729 L 446.771 133.729 L 442.341 171.129 C 453.961 185.689 469.581 204.679 482.911 219.409 C 451.901 227.199 428.791 241.179 413.561 261.369 C 398.321 281.549 390.771 300.889 390.771 327.269 C 390.771 356.429 401.691 381.819 418.651 399.759 C 435.601 417.709 457.191 428.779 488.461 428.779 C 525.931 428.779 555.111 416.409 576.021 391.679 C 596.931 366.939 607.381 339.669 607.381 309.849 C 607.381 297.979 604.741 285.549 599.471 272.549 C 594.191 259.559 581.141 243.759 560.291 225.159 C 547.631 213.949 534.171 199.639 519.921 182.219 L 626.571 182.219 L 631.531 133.739 L 631.521 133.729 Z M 552.741 264.769 C 582.171 291.769 582.021 339.839 552.391 372.129 C 522.761 404.429 474.881 408.719 445.451 381.729 C 416.011 354.739 416.171 306.659 445.801 274.369 C 475.421 242.069 523.301 237.779 552.741 264.769 L 552.741 264.769 Z" style="stroke-width: 1; fill: rgb(255, 0, 0); paint-order: fill; fill-rule: nonzero;"/>
  </g>
</svg>