<?xml version="1.0" encoding="UTF-8"?>
<svg id="uuid-a53dbf9f-ab24-452c-85e0-7cbede93a87f" data-name="Layer 1" xmlns="http://www.w3.org/2000/svg" width="1143.88" height="302.98" viewBox="0 0 1143.88 302.98">
  <path d="M306.79,96.21c-12.79-12.15-27.45-18.23-43.99-18.23h-16.76c-11.5.22-21.92,3.09-31.26,8.63-9.35,5.54-16.81,13.02-22.4,22.43-5.59,9.41-8.38,19.87-8.38,31.38v65.56H52.51l98.49-83.97v-30.03H34v-45h128V12.14L0,11.98v114h94.3L0,207.85v31.97l150,.15h0s34,.01,34,.01h31v-99.42c0-8.7,2.99-16.06,8.97-22.07,5.98-6.02,13.41-9.19,22.27-9.51h16.51c8.33,0,15.7,3.06,22.11,9.18,6.09,6.45,9.13,13.86,9.13,22.24v99.58h31v-99.72c0-16.67-6.07-31.36-18.21-44.05Z"/>
  <path d="M749.43,82.03c-13.11-7.74-29.6-11.61-45.46-11.61s-30.3,3.87-43.3,11.61c-10.72,6.38-19.65,14.53-26.81,24.45-6.2-8.33-13.83-15.22-22.95-20.63-11.58-6.87-24.4-10.3-38.47-10.3-8.55,0-16.66,1.35-24.35,4.06-7.68,2.71-14.72,6.44-21.1,11.2v-12.82h-31v131.01h-32.26s-51.49-.01-51.49-.01h0s-3.43,0-3.43,0c-7.53-.97-13.85-2.61-19.17-7.93-5.32-5.32-7.83-19.27-7.83-19.27v-72.78h79v-31h-79V0h-31v181.57c0,10.71,2.62,20.51,7.87,29.38,5.25,8.87,12.31,15.94,21.18,21.18,8.87,5.25,18.67,7.87,29.38,7.87h9.74c.21,0,.43,0,.64,0h94.8s0,0,0,0h12.58v-88c0-12.44,4.44-23.06,13.31-31.85,8.87-8.79,19.58-13.19,32.14-13.19s23.26,4.4,32.14,13.19c8.87,8.79,13.31,19.41,13.31,31.85h.07c-.06,1.4-.11,2.8-.11,4.22,0,22.9,8.42,43.11,25.25,60.62,17.48,16.77,37.82,25.15,61.03,25.15h.16c15.97-.22,32.43-4.14,45.38-11.77,12.95-7.63,23.28-17.92,31-30.88,7.71-12.95,11.57-27.33,11.57-43.13s-3.86-30.18-11.57-43.13c-7.72-12.95-18.13-23.3-31.24-31.04ZM703.97,210.46c-14.46,0-27.25-5.27-38.36-15.8-10.58-11.07-15.86-23.81-15.86-38.21s5.31-27.68,15.94-38.21c10.63-10.53,23.44-15.8,38.44-15.8s29.81,5.27,40.44,15.8c10.63,10.54,15.94,23.27,15.94,38.21s-5.21,27.47-15.62,37.89c-10.42,10.43-25.39,15.8-40.93,16.12Z"/>
  <path d="M1055.33,187.62l-52.56-114.64h-33.86l70.14,153.01-9.35,21.61c-1.83,6.13-3.92,11.02-6.29,14.67-2.37,3.65-6.26,6.31-11.69,7.98-5.43,1.67-14,2.5-25.72,2.5h-143v-48.95c12.89,9.78,27.93,14.83,45.11,15.16,20.3,0,38.19-7.36,53.65-22.09,14.82-15.58,22.23-33.54,22.23-53.85v-14.51c0-13.97-3.41-26.71-10.23-38.21-6.82-11.5-15.98-20.66-27.47-27.49-11.5-6.82-24.22-10.24-38.19-10.24-8.49,0-16.54,1.35-24.17,4.03-7.63,2.69-14.61,6.4-20.95,11.12v-12.74h-31v228h174.38c10.59,0,19.76-.2,27.52-1.69,7.85-1.51,14.56-4.01,20.16-7.5,5.59-3.49,10.34-8.12,14.27-13.87,3.92-5.75,7.28-12.82,10.08-21.2l85.49-185.75h-39.7l-48.85,114.64ZM858.48,115.07c7.29-6.49,16.63-10.36,26.37-10.92,13.8-.8,25.45,3.57,34.97,13.09,8.78,8.79,13.18,19.39,13.18,31.82v14.46c0,12-4.39,22.61-13.18,31.82-9.22,8.79-19.82,13.18-31.82,13.18-12.75-.32-23.44-4.79-32.06-13.42-8.63-8.62-12.94-19.15-12.94-31.58v-14.46c0-13.47,5.16-24.8,15.48-33.99Z"/>
</svg>